HIERARCHY
ROOT root
{
	OFFSET	0	13.1	24.9
	CHANNELS 6  Xposition Yposition Zposition Xrotation Yrotation Zrotation
	JOINT spine_1
	{
		OFFSET	0	9.99999	0
		CHANNELS 3  Xrotation Yrotation Zrotation
		JOINT spine_2
		{
			OFFSET	0	112	-10
			CHANNELS 3  Xrotation Yrotation Zrotation
			JOINT spine_3
			{
				OFFSET	0	206.5	19.3
				CHANNELS 3  Xrotation Yrotation Zrotation
				JOINT spine_4
				{
					OFFSET	0	110.4	14.6
					CHANNELS 3  Xrotation Yrotation Zrotation
					JOINT neck_1
					{
						OFFSET	0	71.8	-50.3
						CHANNELS 3  Xrotation Yrotation Zrotation
						JOINT neck_2
						{
							OFFSET	0	86.2	-25.8
							CHANNELS 3  Xrotation Yrotation Zrotation
							JOINT head_ee
							{
								OFFSET	0	179.8	-8.7
								CHANNELS 3  Xrotation Yrotation Zrotation
								End Site
								{
									OFFSET	1	0	0
								}
							}
						}
					}
					JOINT left_clavicle
					{
						OFFSET	-43.2	22.4	-70.8
						CHANNELS 3  Xrotation Yrotation Zrotation
						JOINT left_shoulder
						{
							OFFSET	-93.9	-5.79999	48.7
							CHANNELS 3  Xrotation Yrotation Zrotation
							JOINT left_elbow
							{
								OFFSET	-291.4	-30.8	15.2
								CHANNELS 3  Xrotation Yrotation Zrotation
								JOINT left_lowarm_twist
								{
									OFFSET	-110.7	-3.89999	13.6
									CHANNELS 3  Xrotation Yrotation Zrotation
									JOINT left_hand
									{
										OFFSET	-110.7	-3.89999	13.6
										CHANNELS 3  Xrotation Yrotation Zrotation
										JOINT left_ee
										{
											OFFSET	-80.8	-5.10001	12.1
											CHANNELS 3  Xrotation Yrotation Zrotation
											End Site
											{
												OFFSET	1	0	0
											}
										}
									}
								}
							}
						}
					}
					JOINT right_clavicle
					{
						OFFSET	43.2	22.4	-70.8
						CHANNELS 3  Xrotation Yrotation Zrotation
						JOINT right_shoulder
						{
							OFFSET	93.9	-5.79999	48.7
							CHANNELS 3  Xrotation Yrotation Zrotation
							JOINT right_elbow
							{
								OFFSET	291.4	-30.8	15.2
								CHANNELS 3  Xrotation Yrotation Zrotation
								JOINT right_lowarm_twist
								{
									OFFSET	110.7	-3.89999	13.6
									CHANNELS 3  Xrotation Yrotation Zrotation
									JOINT right_hand
									{
										OFFSET	110.7	-3.89999	13.6
										CHANNELS 3  Xrotation Yrotation Zrotation
										JOINT right_ee
										{
											OFFSET	80.8	-5.10001	12.1
											CHANNELS 3  Xrotation Yrotation Zrotation
											End Site
											{
												OFFSET	1	0	0
											}
										}
									}
								}
							}
						}
					}
				}
			}
		}
	}
	JOINT left_hip
	{
		OFFSET	-82.8	-127.5	0.300001
		CHANNELS 3  Xrotation Yrotation Zrotation
		JOINT left_knee
		{
			OFFSET	-28.2	-396.7	2.2
			CHANNELS 3  Xrotation Yrotation Zrotation
			JOINT left_ankle
			{
				OFFSET	-11.7	-411.3	35.4
				CHANNELS 3  Xrotation Yrotation Zrotation
				JOINT left_toes
				{
					OFFSET	0	-60	-88.6
					CHANNELS 3  Xrotation Yrotation Zrotation
					JOINT left_foot_ee
					{
						OFFSET	-22.5	-16.5	-42.2
						CHANNELS 3  Xrotation Yrotation Zrotation
						End Site
						{
							OFFSET	1	0	0
						}
					}
				}
			}
		}
	}
	JOINT right_hip
	{
		OFFSET	82.8	-127.5	0.300001
		CHANNELS 3  Xrotation Yrotation Zrotation
		JOINT right_knee
		{
			OFFSET	28.2	-396.7	2.2
			CHANNELS 3  Xrotation Yrotation Zrotation
			JOINT right_ankle
			{
				OFFSET	11.7	-411.3	35.4
				CHANNELS 3  Xrotation Yrotation Zrotation
				JOINT right_toes
				{
					OFFSET	0	-60	-88.6
					CHANNELS 3  Xrotation Yrotation Zrotation
					JOINT right_foot_ee
					{
						OFFSET	22.5	-16.5	-42.2
						CHANNELS 3  Xrotation Yrotation Zrotation
						End Site
						{
							OFFSET	1	0	0
						}
					}
				}
			}
		}
	}
}
MOTION
Frames: 14
Frame Time: 0.02
3177.02 653.055 -1669.29 130.382670259 77.3016628539 -123.678234921 -7.80197 -0.0202591 -2.08658 -7.79955 0.112527 -2.08364 -7.79864 0.816414 -1.9204 -7.80344 0.502944 -2.02518 -9.15945 6.49687 3.20326 -9.15693 9.98418 4.67214 -0.0 0.0 -0.0 10.6926 17.6743 19.003 -19.6772 2.92097 63.4466 0.559791 -15.4991 0.0761802 16.0152 0.283688 -2.01948 -3.68186 28.8419 -8.59642 -0.0 0.0 -0.0 12.0716 18.5858 -24.1915 40.8535 15.6041 -54.3091 2.31315 48.8817 -1.05139 29.2387 -0.0892573 3.6937 -0.626005 -13.2184 -1.49991 0.0 0.0 0.0 47.4627 -3.17569 -4.97092 -38.3162 -0.363134 5.76111 -0.557367 20.6925 0.0835777 -3.8723 0.0 0.0 -0.0 0.0 -0.0 -7.95199 17.0642 -19.9553 -62.6013 2.48733 -8.80564 40.0454 2.59053 4.90388 40.2457 -0.0 -0.0 0.0 0.0 0.0 
3088.29738884 628.677 -1649.03730599 110.051396666 77.5232862506 -105.153632011 -8.85901 0.109421 -0.750999 -8.85871 0.156985 -0.742515 -8.86025 0.412594 -0.636981 -8.86068 0.306819 -0.694145 -6.58895 6.25954 4.29157 -6.54272 8.48038 5.52832 -0.0 0.0 -0.0 10.2664 18.4626 18.1525 -13.6713 1.29311 64.4769 0.892783 -23.8575 0.188611 26.881 0.152176 -3.39913 -2.37181 27.5858 -2.1651 -0.0 0.0 -0.0 12.5106 21.3351 -25.0084 40.3786 14.4235 -55.166 2.22851 47.8219 -0.98815 32.4209 0.0147949 4.08678 -0.122749 -12.829 -4.50508 0.0 0.0 0.0 52.6523 -5.93061 -5.19975 -64.6694 -2.72472 9.019 0.338228 20.8326 -0.0506441 2.2183 -0.0 -0.0 -0.0 0.0 -0.0 -18.2556 25.447 -17.1688 -60.9493 2.30336 -8.62919 38.3678 -3.89927 4.71483 40.1095 -0.0 -0.0 0.0 0.0 0.0 
3088.33057653 628.677 -1648.89246313 110.447546777 77.4909059125 -105.559389221 -8.85901 0.109421 -0.750999 -8.85871 0.156985 -0.742515 -8.86025 0.412594 -0.636981 -8.86068 0.306819 -0.694145 -6.58895 6.25954 4.29157 -6.54272 8.48038 5.52832 -0.0 0.0 -0.0 10.2664 18.4626 18.1525 -13.6713 1.29311 64.4769 0.892783 -23.8575 0.188611 26.881 0.152176 -3.39913 -2.37181 27.5858 -2.1651 -0.0 0.0 -0.0 12.5106 21.3351 -25.0084 40.3786 14.4235 -55.166 2.22851 47.8219 -0.98815 32.4209 0.0147949 4.08678 -0.122749 -12.829 -4.50508 0.0 0.0 0.0 52.6523 -5.93061 -5.19975 -64.6694 -2.72472 9.019 0.338228 20.8326 -0.0506441 2.2183 -0.0 -0.0 -0.0 0.0 -0.0 -18.2556 25.447 -17.1688 -60.9493 2.30336 -8.62919 38.3678 -3.89927 4.71483 40.1095 -0.0 -0.0 0.0 0.0 0.0 
3068.95940229 626.663 -1650.07133826 105.849499937 77.5850403218 -100.50830251 -9.21013 0.160596 -0.565365 -9.20997 0.196246 -0.554001 -9.21171 0.384437 -0.444567 -9.21185 0.309402 -0.499701 -5.20022 6.60892 3.68689 -5.15613 9.40691 4.9061 -0.0 0.0 -0.0 10.337 18.5971 18.2469 -10.492 0.950043 63.4371 0.907133 -24.1973 0.194454 30.0958 0.063383 -3.80013 -1.79411 28.7223 1.5174 -0.0 0.0 -0.0 12.1894 21.2152 -24.2777 38.7816 14.7847 -55.8837 2.45507 50.5633 -1.15968 33.9841 0.0738715 4.27763 0.0250327 -13.702 -5.78508 0.0 0.0 0.0 53.2428 -8.62918 -5.21306 -69.1628 -3.26626 9.45249 -1.20113 20.8002 0.180432 3.85073 -0.0 -0.0 -0.0 0.0 -0.0 -19.1994 26.5119 -17.1449 -62.8196 2.51202 -8.82856 37.7551 -6.96258 4.66018 40.118 -0.0 -0.0 0.0 0.0 0.0 
2948.45868082 632.79 -1637.96539206 97.2001543193 79.9920518511 -91.2041229422 -9.07335 -0.334281 -0.668568 -9.07315 -0.291061 -0.688483 -9.06871 -0.0223829 -0.747141 -9.06946 -0.140096 -0.734231 2.06249 7.42164 6.01406 2.17727 7.95422 7.222 -0.0 0.0 -0.0 9.51291 18.7422 16.8692 1.43426 -0.330177 66.5156 0.959574 -25.4234 0.21646 40.232 -0.361386 -5.02255 0.674436 28.777 15.0154 -0.0 0.0 -0.0 12.2951 22.2586 -24.4335 29.1986 14.2129 -54.2652 2.63196 52.5032 -1.2982 38.0687 0.252638 4.76817 1.02066 -21.1783 -14.6603 0.0 0.0 0.0 50.6023 -10.6514 -4.63253 -80.3608 -4.7491 10.3383 4.53063 21.2016 -0.672415 16.1917 -0.0 -0.0 -0.0 0.0 -0.0 -21.9052 27.0036 -17.7003 -56.034 1.78729 -8.07421 13.4523 -14.5334 1.90186 36.6898 -0.0 -0.0 0.0 0.0 0.0 
2874.4457935 653.033 -1631.83627465 83.3740493073 80.4575089143 -74.4787584647 -8.69938 -0.53617 -2.26006 -8.69663 -0.391309 -2.28958 -8.67237 0.447568 -2.27926 -8.67961 0.082086 -2.32131 5.15798 7.20574 8.55426 5.3296 4.8141 10.1428 -0.0 0.0 -0.0 9.79951 16.5836 17.6612 6.80945 -1.19589 70.1089 0.902635 -24.091 0.192614 46.6537 -0.7398 -5.75137 1.2534 26.5019 17.6758 -0.0 0.0 -0.0 12.0415 20.3713 -24.0024 20.2809 11.8219 -51.2153 2.53714 51.4839 -1.22349 38.1658 0.257314 4.77968 2.55765 -25.7123 -25.434 0.0 0.0 0.0 44.4771 -9.5606 -8.39078 -84.0078 -5.26584 10.5625 13.2549 18.8077 -1.89758 23.0582 -0.0 -0.0 -0.0 0.0 -0.0 -24.5916 25.8351 -14.8756 -52.6714 1.4627 -7.67032 -2.169 -16.774 -0.322336 29.8537 -0.0 -0.0 0.0 0.0 0.0 
2874.08362285 653.033 -1634.88820665 79.9890321515 80.3739123075 -71.0458528472 -8.69938 -0.53617 -2.26006 -8.69663 -0.391309 -2.28958 -8.67237 0.447568 -2.27926 -8.67961 0.082086 -2.32131 5.15798 7.20574 8.55426 5.3296 4.8141 10.1428 -0.0 0.0 -0.0 9.79951 16.5836 17.6612 6.80945 -1.19589 70.1089 0.902635 -24.091 0.192614 46.6537 -0.7398 -5.75137 1.2534 26.5019 17.6758 -0.0 0.0 -0.0 12.0415 20.3713 -24.0024 20.2809 11.8219 -51.2153 2.53714 51.4839 -1.22349 38.1658 0.257314 4.77968 2.55765 -25.7123 -25.434 0.0 0.0 0.0 44.4771 -9.5606 -8.39078 -84.0078 -5.26584 10.5625 13.2549 18.8077 -1.89758 23.0582 -0.0 -0.0 -0.0 0.0 -0.0 -24.5916 25.8351 -14.8756 -52.6714 1.4627 -7.67032 -2.169 -16.774 -0.322336 29.8537 -0.0 -0.0 0.0 0.0 0.0 
2873.65600364 653.033 -1638.88905101 75.6663788252 80.2143599411 -66.6604925874 -8.69938 -0.53617 -2.26006 -8.69663 -0.391309 -2.28958 -8.67237 0.447568 -2.27926 -8.67961 0.082086 -2.32131 5.15798 7.20574 8.55426 5.3296 4.8141 10.1428 -0.0 0.0 -0.0 9.79951 16.5836 17.6612 6.80945 -1.19589 70.1089 0.902635 -24.091 0.192614 46.6537 -0.7398 -5.75137 1.2534 26.5019 17.6758 -0.0 0.0 -0.0 12.0415 20.3713 -24.0024 20.2809 11.8219 -51.2153 2.53714 51.4839 -1.22349 38.1658 0.257314 4.77968 2.55765 -25.7123 -25.434 0.0 0.0 0.0 44.4771 -9.5606 -8.39078 -84.0078 -5.26584 10.5625 13.2549 18.8077 -1.89758 23.0582 -0.0 -0.0 -0.0 0.0 -0.0 -24.5916 25.8351 -14.8756 -52.6714 1.4627 -7.67032 -2.169 -16.774 -0.322336 29.8537 -0.0 -0.0 0.0 0.0 0.0 
2833.19699654 671.267 -1640.32884321 59.8394364773 80.0426623084 -48.7195671773 -8.01856 -0.481086 -3.16036 -8.01305 -0.279113 -3.18453 -7.98311 0.833795 -3.08618 -7.99624 0.336186 -3.17902 3.06447 6.84868 8.80214 3.25403 4.37945 10.2976 -0.0 0.0 -0.0 10.8714 16.6916 19.4811 9.80266 0.106996 71.4464 0.910765 -24.283 0.195945 48.5433 -0.866511 -5.95739 -0.292008 23.5785 7.71454 -0.0 0.0 -0.0 10.6752 17.7727 -21.0645 14.779 9.26409 -53.2114 2.41698 50.1233 -1.13035 37.3417 0.218267 4.68181 4.34831 -30.0883 -38.0686 0.0 0.0 0.0 37.8171 -10.9916 -10.4276 -79.2661 -4.59685 10.2646 24.6836 17.9642 -3.35852 25.8084 -0.0 -0.0 -0.0 0.0 -0.0 -23.0919 24.091 -14.0466 -49.1667 1.15038 -7.23015 -8.68804 -15.37 -1.30175 19.5727 -0.0 -0.0 0.0 0.0 0.0 
2810.72587945 681.735 -1645.62721563 57.3254427549 79.062227128 -45.2970422391 -8.05977 -0.406279 -3.69809 -8.05218 -0.170303 -3.71642 -8.02236 1.12198 -3.54732 -8.03949 0.548068 -3.67978 3.23465 6.73689 8.5283 3.41218 4.38976 9.99177 -0.0 0.0 -0.0 11.2436 15.9854 20.2565 10.4992 -0.971887 71.7516 0.948279 -25.1614 0.211634 50.1612 -0.980374 -6.13043 -0.268438 22.2668 7.347 -0.0 0.0 -0.0 10.4734 17.6034 -20.6205 11.034 9.44864 -51.5977 2.33194 49.1112 -1.06557 36.5941 0.184067 4.59255 4.87764 -31.4946 -42.0224 0.0 0.0 0.0 35.6352 -11.4938 -10.6071 -78.978 -4.55701 10.2448 23.4897 18.9871 -3.22614 26.5191 -0.0 -0.0 -0.0 0.0 -0.0 -21.7396 23.7272 -15.2585 -48.6433 1.10608 -7.16283 -8.31611 -17.3167 -1.25107 17.0422 -0.0 -0.0 0.0 0.0 0.0 
2791.88096213 692.973 -1649.55084316 51.4925884113 78.9649758999 -39.0413535206 -7.66308 -0.470038 -3.91673 -7.65458 -0.220051 -3.93866 -7.61889 1.1254 -3.7811 -7.63846 0.514607 -3.91114 3.64112 6.86998 8.25517 3.80688 4.7829 9.71125 -0.0 0.0 -0.0 11.6034 16.3932 20.8159 11.8563 -1.12764 72.3045 0.977161 -25.8291 0.224066 50.3601 -0.994712 -6.15148 -0.779916 21.5936 4.08169 -0.0 0.0 -0.0 10.2157 17.0999 -20.071 8.23187 8.46201 -52.3245 2.05473 45.5016 -0.861729 35.7378 0.146332 4.48978 5.35894 -31.7719 -45.8395 0.0 0.0 0.0 33.4242 -12.3162 -10.4745 -77.969 -4.4183 10.1736 27.032 18.7927 -3.64646 27.5743 -0.0 -0.0 -0.0 0.0 -0.0 -19.7191 23.35 -16.1409 -47.7797 1.03435 -7.05089 -8.28905 -18.2547 -1.25024 14.931 -0.0 -0.0 0.0 0.0 0.0 
2761.16331987 708.416 -1647.2492463 55.6613811517 79.8430023575 -43.5628925908 -7.24884 -0.685998 -3.99191 -7.24008 -0.430804 -4.02739 -7.18797 0.927043 -3.94298 -7.20954 0.293222 -4.03972 3.34743 6.71035 7.06457 3.47445 5.59131 8.35375 -0.0 0.0 -0.0 11.4906 16.4204 20.6115 13.5738 -1.23125 74.9337 1.02651 -26.9528 0.246001 50.5343 -1.00733 -6.16988 -1.82422 20.3345 -2.62178 -0.0 0.0 -0.0 10.0386 14.9171 -19.7823 4.90349 5.08536 -53.3558 1.84622 42.4407 -0.716906 33.2145 0.0441338 4.18386 6.06676 -32.6508 -52.0452 0.0 0.0 0.0 27.3385 -11.4761 -9.80078 -72.3087 -3.66491 9.73026 33.5682 17.4033 -4.34648 27.1626 -0.0 -0.0 -0.0 0.0 -0.0 -14.025 22.1618 -17.7795 -53.042 1.49729 -7.71574 -8.54844 -20.7739 -1.30077 13.4951 -0.0 -0.0 0.0 0.0 0.0 
2744.28332519 719.674 -1640.67528829 59.6032846408 81.0956844761 -46.9314389452 -6.93905 -0.876953 -4.36035 -6.92867 -0.597992 -4.40719 -6.85666 0.869686 -4.3618 -6.88316 0.170619 -4.44422 3.22386 6.32506 6.19425 3.32565 5.69246 7.352 -0.0 0.0 -0.0 11.345 16.0088 20.4314 14.9633 -1.82571 76.9493 1.05605 -27.615 0.259544 50.1394 -0.978806 -6.12812 -2.10701 18.7932 -5.06022 -0.0 0.0 -0.0 9.68384 13.5982 -19.049 2.16208 4.45212 -53.8727 1.70215 40.1341 -0.62183 30.2352 -0.0590266 3.81739 6.40815 -33.1364 -55.4065 0.0 0.0 0.0 24.6066 -12.7065 -9.54037 -69.5808 -3.31834 9.49064 36.3751 17.537 -4.63263 27.8255 -0.0 -0.0 -0.0 0.0 -0.0 -10.1131 21.3829 -18.8107 -56.049 1.7888 -8.07598 -5.7224 -21.6611 -0.869944 12.8315 -0.0 -0.0 0.0 0.0 0.0 
2730.0963296 729.92 -1638.90191715 54.3268857222 80.6153968533 -41.3331557203 -6.74356 -0.762478 -4.54467 -6.7322 -0.472055 -4.58386 -6.66775 1.03199 -4.49125 -6.69576 0.310516 -4.5976 2.18933 6.53404 6.23708 2.29623 6.18364 7.40021 -0.0 0.0 -0.0 11.4431 16.2098 20.5675 16.8672 -1.48555 78.1585 1.09879 -28.5591 0.279669 50.6615 -1.01657 -6.18329 -2.38292 18.2383 -7.00953 -0.0 0.0 -0.0 9.50908 12.4464 -18.7038 -0.045924 5.09064 -54.5229 1.57002 37.871 -0.538656 29.3462 -0.0860998 3.70707 6.71022 -33.6318 -58.6711 0.0 0.0 0.0 21.8703 -13.3889 -9.7543 -67.5452 -3.0674 9.30131 39.0024 17.2209 -4.87848 28.0712 -0.0 -0.0 -0.0 0.0 -0.0 -7.49932 22.3834 -18.1802 -58.598 2.05051 -8.36917 -4.58466 -22.0411 -0.6967 11.9228 -0.0 -0.0 0.0 0.0 0.0 
